# xmcd
#
# Track frame offsets:
#	150
#	10312
#	27302
#	37587
#	54082
#	65155
#	75405
#	91560
#	107057
#	117062
#	133107
#	146480
#	165462
#	186595
#
# Disc length: 2651 seconds
# Revision: 1
# Processed by: cddbd v1.5.2PL0 Copyright (c) Steve Scherf et al.
# Submitted via: dBpowerAMP V12.0
#
DISCID=a90a590e
DTITLE=Norman Blake • Tony Rice - Blake and Rice
DYEAR=1987
DGENRE=Country
TTITLE0=New Chance Blues
TTITLE1=Green Light on the Southern
TTITLE2=I'm Not Sayin'
TTITLE3=Texas Gales
TTITLE4=Ridge Road Gravel
TTITLE5=Monroe's Hornpipe
TTITLE6=Last Train From Poor Valley
TTITLE7=New River Train
TTITLE8=Stoney Point
TTITLE9=Gonna Lay My Old Guitar Down
TTITLE10=Little Beggarman/Gilderoy
TTITLE11=The Shipyard Apprentice
TTITLE12=Fiddlers Dram • Whiskey Before Breakfast
TTITLE13=I'm Comin' Back But I Don't Know When
EXTD=
EXTT0=
EXTT1=
EXTT2=
EXTT3=
EXTT4=
EXTT5=
EXTT6=
EXTT7=
EXTT8=
EXTT9=
EXTT10=
EXTT11=
EXTT12=
EXTT13=
PLAYORDER=
